<svg width="12" height="21" viewBox="0 0 12 21" fill="none" xmlns="http://www.w3.org/2000/svg">
<path d="M9.21579 10.0058L0.723791 1.27877C0.653875 1.20844 0.598601 1.12494 0.561167 1.03311C0.523732 0.941279 0.504881 0.842935 0.505705 0.74377C0.506529 0.644604 0.527011 0.546587 0.565966 0.45539C0.60492 0.364193 0.661574 0.281627 0.732649 0.212469C0.803723 0.143312 0.887808 0.0889362 0.980036 0.0524894C1.07226 0.0160426 1.17081 -0.00175181 1.26996 0.000135901C1.36911 0.00202361 1.4669 0.023556 1.55767 0.0634869C1.64845 0.103418 1.7304 0.160954 1.79879 0.232767L10.7988 9.48277C10.935 9.62278 11.0112 9.81042 11.0112 10.0058C11.0112 10.2011 10.935 10.3888 10.7988 10.5288L1.79879 19.7788C1.7304 19.8506 1.64845 19.9081 1.55767 19.948C1.4669 19.988 1.36911 20.0095 1.26996 20.0114C1.17081 20.0133 1.07226 19.9955 0.980036 19.959C0.887808 19.9226 0.803723 19.8682 0.732649 19.7991C0.661574 19.7299 0.60492 19.6473 0.565966 19.5561C0.527011 19.4649 0.506529 19.3669 0.505705 19.2678C0.504881 19.1686 0.523732 19.0703 0.561167 18.9784C0.598601 18.8866 0.653875 18.8031 0.723791 18.7328L9.21579 10.0058Z" fill="white"/>
</svg>
