<svg width="14" height="14" viewBox="0 0 14 14" fill="none" xmlns="http://www.w3.org/2000/svg">
<path fill-rule="evenodd" clip-rule="evenodd" d="M7.01168 8.33243L12.3891 13.7098C12.5683 13.883 12.8085 13.9788 13.0577 13.9766C13.3069 13.9744 13.5453 13.8745 13.7216 13.6982C13.8978 13.522 13.9978 13.2836 14 13.0343C14.0021 12.7851 13.9063 12.545 13.7332 12.3657L8.35579 6.98832L13.7332 1.61094C13.9063 1.43166 14.0021 1.19155 14 0.942311C13.9978 0.693074 13.8978 0.454659 13.7216 0.278416C13.5453 0.102172 13.3069 0.00220173 13.0577 3.59341e-05C12.8085 -0.00212986 12.5683 0.0936822 12.3891 0.266836L7.01168 5.64421L1.6343 0.266836C1.45422 0.0979625 1.2155 0.0057769 0.968649 0.00978526C0.721802 0.0137936 0.486198 0.113682 0.31169 0.288313C0.137182 0.462945 0.0374599 0.698619 0.0336262 0.945469C0.0297924 1.19232 0.122147 1.43098 0.291148 1.61094L5.66757 6.98832L0.290198 12.3657C0.199408 12.4534 0.126992 12.5583 0.0771738 12.6742C0.0273554 12.7902 0.00113267 12.915 3.58907e-05 13.0412C-0.00106089 13.1674 0.02299 13.2926 0.0707855 13.4094C0.118581 13.5262 0.189164 13.6323 0.278415 13.7216C0.367667 13.8108 0.4738 13.8814 0.590622 13.9292C0.707443 13.977 0.832614 14.0011 0.95883 14C1.08505 13.9989 1.20978 13.9726 1.32575 13.9228C1.44173 13.873 1.54662 13.8006 1.6343 13.7098L7.01168 8.33243Z" fill="#151515"/>
</svg>
