<svg width="65" height="48" viewBox="0 0 65 48" fill="none" xmlns="http://www.w3.org/2000/svg">
<path d="M49.5086 2.0433L8.26487 11.3958H56.2955L54.8169 4.77371C54.7586 4.51282 54.6806 4.25404 54.5452 4.02355C53.3726 2.02744 50.6614 1.89579 49.5086 2.0433Z" fill="#D9D9D9"/>
<path d="M2 42C2 44.2091 3.79086 46 6 46H59C61.2091 46 63 44.2091 63 42V36.8936C63 36.3665 62.6244 35.911 62.1228 35.7491C60.3051 35.1625 56.2955 33.2959 56.2955 28.2426C56.2955 23.1893 60.3051 21.3227 62.1228 20.7361C62.6244 20.5742 63 20.1186 63 19.5915V15.3958C63 13.1867 61.2091 11.3958 59 11.3958H56.2955H8.26487H6C3.79086 11.3958 2 13.1866 2 15.3958V19.5915V20.5022C2 20.5022 9.40714 21.2405 9.40714 28.2426C9.40714 35.2446 2 35.983 2 35.983V36.8936V42Z" fill="white"/>
<path d="M2 20.5022C2 20.2008 2 19.8974 2 19.5915M2 20.5022V19.5915M2 20.5022C2 20.5022 9.40714 21.2405 9.40714 28.2426C9.40714 35.2446 2 35.983 2 35.983M2 35.983C2 36.2845 2 36.588 2 36.8936M2 35.983V36.8936M2 19.5915V15.3958C2 13.1866 3.79086 11.3958 6 11.3958H8.26487M2 36.8936V42C2 44.2091 3.79086 46 6 46H59C61.2091 46 63 44.2091 63 42V36.8936V36.8936C63 36.3665 62.6244 35.911 62.1228 35.7491C60.3051 35.1625 56.2955 33.2959 56.2955 28.2426C56.2955 23.1893 60.3051 21.3227 62.1228 20.7361C62.6244 20.5742 63 20.1186 63 19.5915V19.5915V15.3958C63 13.1867 61.2091 11.3958 59 11.3958H56.2955M8.26487 11.3958L49.5086 2.0433C50.6614 1.89579 53.3726 2.02744 54.5452 4.02355C54.6806 4.25404 54.7586 4.51282 54.8169 4.77371L56.2955 11.3958M8.26487 11.3958H56.2955" stroke="#0F1C5F" stroke-width="3" stroke-linecap="round"/>
<path d="M17 27H29" stroke="#0F1C5F" stroke-width="3" stroke-linecap="round"/>
<path d="M17.0723 33.4136H44.0723" stroke="#0F1C5F" stroke-width="3" stroke-linecap="round"/>
</svg>
