<svg width="57" height="53" viewBox="0 0 57 53" fill="none" xmlns="http://www.w3.org/2000/svg">
<path d="M37 44.7758C37 48.2133 29.6606 51 19.5 51C9.33938 51 2 48.2133 2 44.7758V10H37V44.7758Z" fill="white" stroke="#0F1C5F" stroke-width="3"/>
<path d="M37 8.5C37 12.0899 29.165 15 19.5 15C9.83502 15 2 12.0899 2 8.5C2 4.91015 9.83502 2 19.5 2C29.165 2 37 4.91015 37 8.5Z" fill="#D9D9D9" stroke="#0F1C5F" stroke-width="3"/>
<path d="M4 23.6217C6.82151 25.6207 12.3903 26.893 18.7683 26.7339C21.8876 26.6561 24.7982 26.2459 27.2774 25.5971C27.8666 25.4428 28.4315 25.2751 28.969 25.0952" stroke="#0F1C5F" stroke-width="3" stroke-linecap="round"/>
<path d="M4 35.4377C6.80818 37.4575 12.3684 38.7709 18.7473 38.6589C21.867 38.6041 24.7803 38.2154 27.2637 37.5848C27.8539 37.435 28.4199 37.2714 28.9586 37.0955" stroke="#0F1C5F" stroke-width="3" stroke-linecap="round"/>
<circle cx="39" cy="35" r="16.5" fill="white" stroke="#0F1C5F" stroke-width="3"/>
<mask id="path-6-inside-1_687_117" fill="white">
<path d="M34.7196 40.3639L35.621 36.8992H33.8517L34.6862 40.3755C34.6937 40.3832 34.6974 40.3948 34.6974 40.4102C34.6974 40.4257 34.7011 40.4373 34.7085 40.445C34.7085 40.4373 34.7104 40.4237 34.7141 40.4044C34.7178 40.3851 34.7196 40.3716 34.7196 40.3639ZM36.0104 35.416L36.3999 33.9328H33.1506L33.5067 35.416H36.0104ZM38.147 35.416H39.6937L39.3042 33.9328H38.5253L38.147 35.416ZM43.1433 40.3755L44.0112 36.8992H42.2086L43.1099 40.3639C43.1099 40.3716 43.1118 40.3851 43.1155 40.4044C43.1192 40.4237 43.1247 40.4373 43.1322 40.445C43.1322 40.4373 43.134 40.4257 43.1377 40.4102C43.1414 40.3948 43.1433 40.3832 43.1433 40.3755ZM44.3785 35.416L44.7457 33.9328H41.4407L41.8191 35.416H44.3785ZM48.9408 35.7868V36.5284C48.9408 36.6366 48.9074 36.7254 48.8407 36.7949C48.7739 36.8644 48.6886 36.8992 48.5847 36.8992H46.2145L44.3896 44.0371C44.3377 44.2225 44.2227 44.3152 44.0446 44.3152H42.2753C42.0973 44.3152 41.9823 44.2225 41.9304 44.0371L40.0832 36.8992H37.7575L35.8992 44.0371C35.8472 44.2225 35.7322 44.3152 35.5542 44.3152H33.7849C33.7033 44.3152 33.631 44.2882 33.5679 44.2341C33.5049 44.18 33.4659 44.1144 33.4511 44.0371L31.6706 36.8992H29.3561C29.2522 36.8992 29.1669 36.8644 29.1001 36.7949C29.0334 36.7254 29 36.6366 29 36.5284V35.7868C29 35.6787 29.0334 35.5898 29.1001 35.5203C29.1669 35.4508 29.2522 35.416 29.3561 35.416H31.3034L30.9362 33.9328H29.3561C29.2522 33.9328 29.1669 33.898 29.1001 33.8285C29.0334 33.759 29 33.6702 29 33.562V32.8204C29 32.7123 29.0334 32.6234 29.1001 32.5539C29.1669 32.4844 29.2522 32.4496 29.3561 32.4496H30.569L29.5786 28.4635C29.5415 28.3476 29.5601 28.2395 29.6343 28.1391C29.7085 28.0464 29.8049 28 29.9236 28H31.4481C31.641 28 31.756 28.0927 31.793 28.2781L32.7945 32.4496H36.7894L37.8688 28.2781C37.9207 28.0927 38.0357 28 38.2137 28H39.6158C39.7939 28 39.9088 28.0927 39.9608 28.2781L41.0513 32.4496H45.1129L46.1478 28.2781C46.1848 28.0927 46.2998 28 46.4927 28H48.0172C48.1359 28 48.2323 28.0464 48.3065 28.1391C48.3807 28.2395 48.3993 28.3476 48.3622 28.4635L47.3495 32.4496H48.5847C48.6886 32.4496 48.7739 32.4844 48.8407 32.5539C48.9074 32.6234 48.9408 32.7123 48.9408 32.8204V33.562C48.9408 33.6702 48.9074 33.759 48.8407 33.8285C48.7739 33.898 48.6886 33.9328 48.5847 33.9328H46.9712L46.5929 35.416H48.5847C48.6886 35.416 48.7739 35.4508 48.8407 35.5203C48.9074 35.5898 48.9408 35.6787 48.9408 35.7868Z"/>
</mask>
<path d="M34.7196 40.3639L35.621 36.8992H33.8517L34.6862 40.3755C34.6937 40.3832 34.6974 40.3948 34.6974 40.4102C34.6974 40.4257 34.7011 40.4373 34.7085 40.445C34.7085 40.4373 34.7104 40.4237 34.7141 40.4044C34.7178 40.3851 34.7196 40.3716 34.7196 40.3639ZM36.0104 35.416L36.3999 33.9328H33.1506L33.5067 35.416H36.0104ZM38.147 35.416H39.6937L39.3042 33.9328H38.5253L38.147 35.416ZM43.1433 40.3755L44.0112 36.8992H42.2086L43.1099 40.3639C43.1099 40.3716 43.1118 40.3851 43.1155 40.4044C43.1192 40.4237 43.1247 40.4373 43.1322 40.445C43.1322 40.4373 43.134 40.4257 43.1377 40.4102C43.1414 40.3948 43.1433 40.3832 43.1433 40.3755ZM44.3785 35.416L44.7457 33.9328H41.4407L41.8191 35.416H44.3785ZM48.9408 35.7868V36.5284C48.9408 36.6366 48.9074 36.7254 48.8407 36.7949C48.7739 36.8644 48.6886 36.8992 48.5847 36.8992H46.2145L44.3896 44.0371C44.3377 44.2225 44.2227 44.3152 44.0446 44.3152H42.2753C42.0973 44.3152 41.9823 44.2225 41.9304 44.0371L40.0832 36.8992H37.7575L35.8992 44.0371C35.8472 44.2225 35.7322 44.3152 35.5542 44.3152H33.7849C33.7033 44.3152 33.631 44.2882 33.5679 44.2341C33.5049 44.18 33.4659 44.1144 33.4511 44.0371L31.6706 36.8992H29.3561C29.2522 36.8992 29.1669 36.8644 29.1001 36.7949C29.0334 36.7254 29 36.6366 29 36.5284V35.7868C29 35.6787 29.0334 35.5898 29.1001 35.5203C29.1669 35.4508 29.2522 35.416 29.3561 35.416H31.3034L30.9362 33.9328H29.3561C29.2522 33.9328 29.1669 33.898 29.1001 33.8285C29.0334 33.759 29 33.6702 29 33.562V32.8204C29 32.7123 29.0334 32.6234 29.1001 32.5539C29.1669 32.4844 29.2522 32.4496 29.3561 32.4496H30.569L29.5786 28.4635C29.5415 28.3476 29.5601 28.2395 29.6343 28.1391C29.7085 28.0464 29.8049 28 29.9236 28H31.4481C31.641 28 31.756 28.0927 31.793 28.2781L32.7945 32.4496H36.7894L37.8688 28.2781C37.9207 28.0927 38.0357 28 38.2137 28H39.6158C39.7939 28 39.9088 28.0927 39.9608 28.2781L41.0513 32.4496H45.1129L46.1478 28.2781C46.1848 28.0927 46.2998 28 46.4927 28H48.0172C48.1359 28 48.2323 28.0464 48.3065 28.1391C48.3807 28.2395 48.3993 28.3476 48.3622 28.4635L47.3495 32.4496H48.5847C48.6886 32.4496 48.7739 32.4844 48.8407 32.5539C48.9074 32.6234 48.9408 32.7123 48.9408 32.8204V33.562C48.9408 33.6702 48.9074 33.759 48.8407 33.8285C48.7739 33.898 48.6886 33.9328 48.5847 33.9328H46.9712L46.5929 35.416H48.5847C48.6886 35.416 48.7739 35.4508 48.8407 35.5203C48.9074 35.5898 48.9408 35.6787 48.9408 35.7868Z" fill="#0F1C5F"/>
<path d="M34.7196 40.3639L30.8485 39.3568L30.7196 39.8521V40.3639H34.7196ZM35.621 36.8992L39.4921 37.9063L40.7947 32.8992H35.621V36.8992ZM33.8517 36.8992V32.8992H28.7777L29.9622 37.833L33.8517 36.8992ZM34.6862 40.3755L30.7968 41.3092L31.0499 42.3638L31.8012 43.1461L34.6862 40.3755ZM34.7085 40.445L31.8234 43.2156L38.7085 50.3852V40.445H34.7085ZM36.0104 35.416V39.416H39.0957L39.8793 36.4319L36.0104 35.416ZM36.3999 33.9328L40.2687 34.9487L41.5859 29.9328H36.3999V33.9328ZM33.1506 33.9328V29.9328H28.0766L29.2611 34.8666L33.1506 33.9328ZM33.5067 35.416L29.6172 36.3498L30.3534 39.416H33.5067V35.416ZM38.147 35.416L34.2711 34.4273L32.9985 39.416H38.147V35.416ZM39.6937 35.416V39.416H44.8797L43.5625 34.4001L39.6937 35.416ZM39.3042 33.9328L43.1731 32.9169L42.3895 29.9328H39.3042V33.9328ZM38.5253 33.9328V29.9328H35.4175L34.6494 32.9441L38.5253 33.9328ZM43.1433 40.3755L39.2624 39.4065L39.1433 39.8836V40.3755H43.1433ZM44.0112 36.8992L47.8921 37.8682L49.1328 32.8992H44.0112V36.8992ZM42.2086 36.8992V32.8992H37.0348L38.3374 37.9063L42.2086 36.8992ZM43.1099 40.3639H47.1099V39.8521L46.981 39.3568L43.1099 40.3639ZM43.1322 40.445L40.2471 43.2156L47.1322 50.3852V40.445H43.1322ZM44.3785 35.416V39.416H47.5089L48.2612 36.3773L44.3785 35.416ZM44.7457 33.9328L48.6284 34.8941L49.8568 29.9328H44.7457V33.9328ZM41.4407 33.9328V29.9328H36.2923L37.5649 34.9215L41.4407 33.9328ZM41.8191 35.416L37.9432 36.4047L38.7113 39.416H41.8191V35.416ZM46.2145 36.8992V32.8992H43.1085L42.3392 35.9084L46.2145 36.8992ZM44.3896 44.0371L48.2413 45.116L48.2536 45.0721L48.2649 45.0279L44.3896 44.0371ZM41.9304 44.0371L38.0579 45.0392L38.0679 45.0777L38.0786 45.116L41.9304 44.0371ZM40.0832 36.8992L43.9556 35.8971L43.1798 32.8992H40.0832V36.8992ZM37.7575 36.8992V32.8992H34.6655L33.8865 35.8914L37.7575 36.8992ZM35.8992 44.0371L39.7509 45.116L39.7609 45.0805L39.7701 45.0449L35.8992 44.0371ZM33.4511 44.0371L37.3793 43.2826L37.3586 43.1752L37.3322 43.069L33.4511 44.0371ZM31.6706 36.8992L35.5517 35.9311L34.7955 32.8992H31.6706V36.8992ZM31.3034 35.416V39.416H36.4145L35.1862 34.4547L31.3034 35.416ZM30.9362 33.9328L34.819 32.9715L34.0667 29.9328H30.9362V33.9328ZM30.569 32.4496V36.4496H35.6844L34.451 31.4851L30.569 32.4496ZM29.5786 28.4635L33.4606 27.499L33.4286 27.3703L33.3882 27.244L29.5786 28.4635ZM29.6343 28.1391L26.5112 25.6398L26.4629 25.7002L26.4169 25.7624L29.6343 28.1391ZM31.793 28.2781L27.8708 29.0628L27.8857 29.1377L27.9036 29.2119L31.793 28.2781ZM32.7945 32.4496L28.9051 33.3834L29.6412 36.4496H32.7945V32.4496ZM36.7894 32.4496V36.4496H39.8861L40.6618 33.4516L36.7894 32.4496ZM37.8688 28.2781L34.017 27.1992L34.0063 27.2376L33.9963 27.2761L37.8688 28.2781ZM39.9608 28.2781L43.8307 27.2664L43.8219 27.2328L43.8125 27.1992L39.9608 28.2781ZM41.0513 32.4496L37.1813 33.4613L37.9625 36.4496H41.0513V32.4496ZM45.1129 32.4496V36.4496H48.2418L48.9952 33.4127L45.1129 32.4496ZM46.1478 28.2781L50.0301 29.2412L50.0521 29.1525L50.07 29.0628L46.1478 28.2781ZM48.3065 28.1391L51.5239 25.7624L51.4779 25.7002L51.4296 25.6398L48.3065 28.1391ZM48.3622 28.4635L44.5526 27.244L44.5154 27.3603L44.4853 27.4786L48.3622 28.4635ZM47.3495 32.4496L43.4727 31.4647L42.2063 36.4496H47.3495V32.4496ZM46.9712 33.9328V29.9328H43.8635L43.0953 32.9441L46.9712 33.9328ZM46.5929 35.416L42.717 34.4273L41.4444 39.416H46.5929V35.416ZM38.5908 41.371L39.4921 37.9063L31.7498 35.8921L30.8485 39.3568L38.5908 41.371ZM35.621 32.8992H33.8517V40.8992H35.621V32.8992ZM29.9622 37.833L30.7968 41.3092L38.5757 39.4417L37.7411 35.9654L29.9622 37.833ZM31.8012 43.1461C30.8298 42.1346 30.6974 40.9717 30.6974 40.4102H38.6974C38.6974 39.8178 38.5575 38.6318 37.5713 37.6048L31.8012 43.1461ZM30.6974 40.4102C30.6974 41.0026 30.8372 42.1887 31.8234 43.2156L37.5936 37.6744C38.5649 38.6859 38.6974 39.8487 38.6974 40.4102H30.6974ZM38.7085 40.445C38.7085 40.5934 38.7001 40.7129 38.6937 40.786C38.6869 40.8638 38.6789 40.928 38.6728 40.9727C38.6608 41.0597 38.6486 41.1262 38.6423 41.1589L30.7859 39.65C30.7854 39.6523 30.7085 40.0104 30.7085 40.445H38.7085ZM38.6423 41.1589C38.6427 41.1565 38.7196 40.7985 38.7196 40.3639H30.7196C30.7196 40.2155 30.7281 40.0959 30.7344 40.0229C30.7412 39.945 30.7492 39.8809 30.7554 39.8361C30.7673 39.7491 30.7796 39.6827 30.7859 39.65L38.6423 41.1589ZM39.8793 36.4319L40.2687 34.9487L32.5311 32.9169L32.1416 34.4001L39.8793 36.4319ZM36.3999 29.9328H33.1506V37.9328H36.3999V29.9328ZM29.2611 34.8666L29.6172 36.3498L37.3962 34.4822L37.0401 32.999L29.2611 34.8666ZM33.5067 39.416H36.0104V31.416H33.5067V39.416ZM38.147 39.416H39.6937V31.416H38.147V39.416ZM43.5625 34.4001L43.1731 32.9169L35.4354 34.9487L35.8249 36.4319L43.5625 34.4001ZM39.3042 29.9328H38.5253V37.9328H39.3042V29.9328ZM34.6494 32.9441L34.2711 34.4273L42.0228 36.4047L42.4012 34.9215L34.6494 32.9441ZM47.0241 41.3444L47.8921 37.8682L40.1304 35.9302L39.2624 39.4065L47.0241 41.3444ZM44.0112 32.8992H42.2086V40.8992H44.0112V32.8992ZM38.3374 37.9063L39.2388 41.371L46.981 39.3568L46.0797 35.8921L38.3374 37.9063ZM39.1099 40.3639C39.1099 40.7985 39.1868 41.1565 39.1873 41.1589L47.0437 39.65C47.0499 39.6827 47.0622 39.7491 47.0742 39.8361C47.0803 39.8809 47.0883 39.945 47.0951 40.0229C47.1015 40.0959 47.1099 40.2155 47.1099 40.3639H39.1099ZM39.1873 41.1589C39.2321 41.3923 39.419 42.3533 40.2471 43.2156L46.0172 37.6744C46.4621 38.1376 46.6985 38.6082 46.8214 38.9067C46.9485 39.2156 47.0111 39.4804 47.0437 39.65L39.1873 41.1589ZM47.1322 40.445C47.1322 40.7315 47.1005 40.9549 47.0833 41.0627C47.0635 41.1863 47.0415 41.2843 47.0272 41.344L39.2482 39.4764C39.2312 39.5473 39.1322 39.9411 39.1322 40.445H47.1322ZM47.0272 41.344C47.0442 41.2731 47.1433 40.8793 47.1433 40.3755H39.1433C39.1433 40.089 39.1749 39.8656 39.1922 39.7578C39.212 39.6341 39.2339 39.5362 39.2482 39.4764L47.0272 41.344ZM48.2612 36.3773L48.6284 34.8941L40.8629 32.9715L40.4957 34.4547L48.2612 36.3773ZM44.7457 29.9328H41.4407V37.9328H44.7457V29.9328ZM37.5649 34.9215L37.9432 36.4047L45.695 34.4273L45.3166 32.9441L37.5649 34.9215ZM41.8191 39.416H44.3785V31.416H41.8191V39.416ZM44.9408 35.7868V36.5284H52.9408V35.7868H44.9408ZM44.9408 36.5284C44.9408 35.7405 45.2175 34.7929 45.9556 34.0243L51.7257 39.5655C52.5974 38.6579 52.9408 37.5326 52.9408 36.5284H44.9408ZM45.9556 34.0243C46.2919 33.6741 46.7169 33.3727 47.2172 33.1688C47.7111 32.9676 48.1848 32.8992 48.5847 32.8992V40.8992C49.6837 40.8992 50.8421 40.4857 51.7257 39.5655L45.9556 34.0243ZM48.5847 32.8992H46.2145V40.8992H48.5847V32.8992ZM42.3392 35.9084L40.5142 43.0463L48.2649 45.0279L50.0899 37.89L42.3392 35.9084ZM40.5378 42.9583C40.6685 42.4916 40.9919 41.7459 41.7539 41.1316C42.5455 40.4935 43.4147 40.3152 44.0446 40.3152V48.3152C44.8526 48.3152 45.8684 48.0906 46.7749 47.3597C47.6518 46.6528 48.0587 45.768 48.2413 45.116L40.5378 42.9583ZM44.0446 40.3152H42.2753V48.3152H44.0446V40.3152ZM42.2753 40.3152C42.9053 40.3152 43.7745 40.4935 44.5661 41.1316C45.328 41.7459 45.6514 42.4916 45.7821 42.9583L38.0786 45.116C38.2612 45.768 38.6681 46.6528 39.545 47.3597C40.4516 48.0906 41.4673 48.3152 42.2753 48.3152V40.3152ZM45.8028 43.035L43.9556 35.8971L36.2107 37.9013L38.0579 45.0392L45.8028 43.035ZM40.0832 32.8992H37.7575V40.8992H40.0832V32.8992ZM33.8865 35.8914L32.0282 43.0293L39.7701 45.0449L41.6284 37.907L33.8865 35.8914ZM32.0474 42.9583C32.1781 42.4916 32.5015 41.7459 33.2635 41.1316C34.055 40.4935 34.9243 40.3152 35.5542 40.3152V48.3152C36.3622 48.3152 37.3779 48.0906 38.2845 47.3597C39.1614 46.6528 39.5683 45.768 39.7509 45.116L32.0474 42.9583ZM35.5542 40.3152H33.7849V48.3152H35.5542V40.3152ZM33.7849 40.3152C34.6771 40.3152 35.5241 40.6422 36.1718 41.1977L30.964 47.2705C31.7379 47.9341 32.7295 48.3152 33.7849 48.3152V40.3152ZM36.1718 41.1977C36.7542 41.6971 37.2135 42.4193 37.3793 43.2826L29.5229 44.7916C29.7184 45.8094 30.2555 46.6629 30.964 47.2705L36.1718 41.1977ZM37.3322 43.069L35.5517 35.9311L27.7896 37.8673L29.57 45.0052L37.3322 43.069ZM31.6706 32.8992H29.3561V40.8992H31.6706V32.8992ZM29.3561 32.8992C29.756 32.8992 30.2297 32.9676 30.7236 33.1688C31.2239 33.3727 31.6489 33.6741 31.9852 34.0243L26.2151 39.5655C27.0987 40.4857 28.2571 40.8992 29.3561 40.8992V32.8992ZM31.9852 34.0243C32.7233 34.7929 33 35.7405 33 36.5284H25C25 37.5326 25.3435 38.6579 26.2151 39.5655L31.9852 34.0243ZM33 36.5284V35.7868H25V36.5284H33ZM33 35.7868C33 36.5747 32.7233 37.5223 31.9852 38.2909L26.2151 32.7497C25.3435 33.6573 25 34.7826 25 35.7868H33ZM31.9852 38.2909C31.6489 38.6411 31.2239 38.9425 30.7236 39.1464C30.2297 39.3476 29.756 39.416 29.3561 39.416V31.416C28.2571 31.416 27.0987 31.8295 26.2151 32.7497L31.9852 38.2909ZM29.3561 39.416H31.3034V31.416H29.3561V39.416ZM35.1862 34.4547L34.819 32.9715L27.0534 34.8941L27.4207 36.3773L35.1862 34.4547ZM30.9362 29.9328H29.3561V37.9328H30.9362V29.9328ZM29.3561 29.9328C29.756 29.9328 30.2297 30.0012 30.7236 30.2024C31.2239 30.4063 31.6489 30.7077 31.9852 31.0579L26.2151 36.5991C27.0987 37.5193 28.2571 37.9328 29.3561 37.9328V29.9328ZM31.9852 31.0579C32.7233 31.8265 33 32.7741 33 33.562H25C25 34.5662 25.3435 35.6915 26.2151 36.5991L31.9852 31.0579ZM33 33.562V32.8204H25V33.562H33ZM33 32.8204C33 33.6083 32.7233 34.5559 31.9852 35.3245L26.2151 29.7833C25.3435 30.6909 25 31.8162 25 32.8204H33ZM31.9852 35.3245C31.6489 35.6747 31.2239 35.9761 30.7236 36.18C30.2297 36.3812 29.756 36.4496 29.3561 36.4496V28.4496C28.2571 28.4496 27.0987 28.8631 26.2151 29.7833L31.9852 35.3245ZM29.3561 36.4496H30.569V28.4496H29.3561V36.4496ZM34.451 31.4851L33.4606 27.499L25.6967 29.428L26.687 33.4141L34.451 31.4851ZM33.3882 27.244C33.5439 27.7304 33.6179 28.3258 33.5072 28.9716C33.3971 29.6133 33.1342 30.1332 32.8516 30.5157L26.4169 25.7624C25.6027 26.8646 25.3281 28.3053 25.7691 29.683L33.3882 27.244ZM32.7574 30.6383C32.4612 31.0083 32.0441 31.3761 31.495 31.64C30.9458 31.9039 30.3979 32 29.9236 32V24C28.5896 24 27.3442 24.5988 26.5112 25.6398L32.7574 30.6383ZM29.9236 32H31.4481V24H29.9236V32ZM31.4481 32C30.9131 32 30.0144 31.8655 29.1685 31.1836C28.3132 30.494 27.9833 29.6254 27.8708 29.0628L35.7153 27.4934C35.5657 26.7454 35.1598 25.7377 34.1895 24.9555C33.2286 24.1808 32.176 24 31.4481 24V32ZM27.9036 29.2119L28.9051 33.3834L36.684 31.5158L35.6825 27.3443L27.9036 29.2119ZM32.7945 36.4496H36.7894V28.4496H32.7945V36.4496ZM40.6618 33.4516L41.7412 29.2801L33.9963 27.2761L32.9169 31.4476L40.6618 33.4516ZM41.7205 29.357C41.5898 29.8236 41.2664 30.5693 40.5045 31.1836C39.7129 31.8217 38.8437 32 38.2137 32V24C37.4057 24 36.39 24.2246 35.4834 24.9555C34.6065 25.6624 34.1996 26.5472 34.017 27.1992L41.7205 29.357ZM38.2137 32H39.6158V24H38.2137V32ZM39.6158 32C38.9859 32 38.1166 31.8217 37.3251 31.1836C36.5631 30.5693 36.2397 29.8236 36.109 29.357L43.8125 27.1992C43.6299 26.5472 43.223 25.6624 42.3461 24.9555C41.4395 24.2246 40.4238 24 39.6158 24V32ZM36.0908 29.2898L37.1813 33.4613L44.9212 31.4379L43.8307 27.2664L36.0908 29.2898ZM41.0513 36.4496H45.1129V28.4496H41.0513V36.4496ZM48.9952 33.4127L50.0301 29.2412L42.2654 27.315L41.2306 31.4865L48.9952 33.4127ZM50.07 29.0628C49.9575 29.6254 49.6276 30.494 48.7723 31.1836C47.9264 31.8655 47.0277 32 46.4927 32V24C45.7648 24 44.7122 24.1808 43.7513 24.9555C42.781 25.7377 42.3751 26.7454 42.2255 27.4934L50.07 29.0628ZM46.4927 32H48.0172V24H46.4927V32ZM48.0172 32C47.5429 32 46.995 31.9039 46.4458 31.64C45.8967 31.3761 45.4796 31.0083 45.1835 30.6383L51.4296 25.6398C50.5966 24.5988 49.3512 24 48.0172 24V32ZM45.0892 30.5157C44.8066 30.1332 44.5437 29.6133 44.4336 28.9716C44.3229 28.3258 44.3969 27.7304 44.5526 27.244L52.1717 29.683C52.6127 28.3053 52.3381 26.8646 51.5239 25.7624L45.0892 30.5157ZM44.4853 27.4786L43.4727 31.4647L51.2264 33.4345L52.239 29.4484L44.4853 27.4786ZM47.3495 36.4496H48.5847V28.4496H47.3495V36.4496ZM48.5847 36.4496C48.1848 36.4496 47.7111 36.3812 47.2172 36.18C46.7169 35.9761 46.2919 35.6747 45.9556 35.3245L51.7257 29.7833C50.8421 28.8631 49.6837 28.4496 48.5847 28.4496V36.4496ZM45.9556 35.3245C45.2175 34.5559 44.9408 33.6083 44.9408 32.8204H52.9408C52.9408 31.8162 52.5974 30.6909 51.7257 29.7833L45.9556 35.3245ZM44.9408 32.8204V33.562H52.9408V32.8204H44.9408ZM44.9408 33.562C44.9408 32.7741 45.2175 31.8265 45.9556 31.0579L51.7257 36.5991C52.5974 35.6915 52.9408 34.5662 52.9408 33.562H44.9408ZM45.9556 31.0579C46.2919 30.7077 46.7169 30.4063 47.2172 30.2024C47.7111 30.0012 48.1848 29.9328 48.5847 29.9328V37.9328C49.6837 37.9328 50.8421 37.5193 51.7257 36.5991L45.9556 31.0579ZM48.5847 29.9328H46.9712V37.9328H48.5847V29.9328ZM43.0953 32.9441L42.717 34.4273L50.4688 36.4047L50.8471 34.9215L43.0953 32.9441ZM46.5929 39.416H48.5847V31.416H46.5929V39.416ZM48.5847 39.416C48.1848 39.416 47.7111 39.3476 47.2172 39.1464C46.7169 38.9425 46.2919 38.6411 45.9556 38.2909L51.7257 32.7497C50.8421 31.8295 49.6837 31.416 48.5847 31.416V39.416ZM45.9556 38.2909C45.2175 37.5223 44.9408 36.5747 44.9408 35.7868H52.9408C52.9408 34.7826 52.5974 33.6573 51.7257 32.7497L45.9556 38.2909Z" fill="#0F1C5F" mask="url(#path-6-inside-1_687_117)"/>
</svg>
