<svg width="23" height="22" viewBox="0 0 23 22" fill="none" xmlns="http://www.w3.org/2000/svg">
<path d="M9.00537 14.584V7.416C9.00552 7.32632 9.02979 7.23832 9.07563 7.16124C9.12148 7.08416 9.18721 7.02083 9.26594 6.97788C9.34468 6.93494 9.43351 6.91396 9.52314 6.91715C9.61277 6.92034 9.69989 6.94757 9.77537 6.996L15.3514 10.579C15.422 10.6242 15.4801 10.6865 15.5203 10.7601C15.5605 10.8336 15.5816 10.9161 15.5816 11C15.5816 11.0839 15.5605 11.1664 15.5203 11.2399C15.4801 11.3135 15.422 11.3758 15.3514 11.421L9.77537 15.005C9.69989 15.0534 9.61277 15.0807 9.52314 15.0839C9.43351 15.087 9.34468 15.0661 9.26594 15.0231C9.18721 14.9802 9.12148 14.9168 9.07563 14.8398C9.02979 14.7627 9.00552 14.6747 9.00537 14.585V14.584Z" fill="white"/>
<path d="M0.505371 11C0.505371 4.925 5.43037 0 11.5054 0C17.5804 0 22.5054 4.925 22.5054 11C22.5054 17.075 17.5804 22 11.5054 22C5.43037 22 0.505371 17.075 0.505371 11ZM11.5054 1.5C8.98581 1.5 6.56945 2.50089 4.78786 4.28249C3.00626 6.06408 2.00537 8.48044 2.00537 11C2.00537 13.5196 3.00626 15.9359 4.78786 17.7175C6.56945 19.4991 8.98581 20.5 11.5054 20.5C14.0249 20.5 16.4413 19.4991 18.2229 17.7175C20.0045 15.9359 21.0054 13.5196 21.0054 11C21.0054 8.48044 20.0045 6.06408 18.2229 4.28249C16.4413 2.50089 14.0249 1.5 11.5054 1.5Z" fill="white"/>
</svg>
