<svg width="23" height="22" viewBox="0 0 23 22" fill="none" xmlns="http://www.w3.org/2000/svg">
<path d="M9.16699 6.99999V14ZM13.8337 6.99999V14Z" fill="white"/>
<path d="M9.16699 6.99999V14M13.8337 6.99999V14" stroke="white" stroke-width="1.5625" stroke-linecap="round" stroke-linejoin="round"/>
<path d="M1.00537 11C1.00537 5.20114 5.70651 0.5 11.5054 0.5C17.3042 0.5 22.0054 5.20114 22.0054 11C22.0054 16.7989 17.3042 21.5 11.5054 21.5C5.70651 21.5 1.00537 16.7989 1.00537 11ZM11.5054 1C8.85321 1 6.30967 2.05357 4.4343 3.92893C2.55894 5.8043 1.50537 8.34783 1.50537 11C1.50537 13.6522 2.55894 16.1957 4.4343 18.0711C6.30967 19.9464 8.85321 21 11.5054 21C14.1575 21 16.7011 19.9464 18.5764 18.0711C20.4518 16.1957 21.5054 13.6522 21.5054 11C21.5054 8.34783 20.4518 5.8043 18.5764 3.92893C16.7011 2.05357 14.1575 1 11.5054 1Z" fill="white" stroke="white"/>
</svg>
