<svg width="54" height="54" viewBox="0 0 54 54" fill="none" xmlns="http://www.w3.org/2000/svg">
<path d="M44.5 37.7155C49.1284 39.2279 52 41.3355 52 43.6667C52 48.269 40.8071 52 27 52C13.1929 52 2 48.269 2 43.6667C2 41.3355 4.8716 39.2279 9.50001 37.7155" stroke="#0F1C5F" stroke-width="3" stroke-linecap="round"/>
<path d="M28.7008 39.426C28.0259 40.0677 27.4457 40.5999 27 41.0012C26.5543 40.5999 25.9742 40.0677 25.2992 39.426C23.6826 37.8889 21.5315 35.7323 19.3849 33.2484C17.2338 30.7592 15.1152 27.9734 13.5415 25.1782C11.9546 22.3596 11 19.6679 11 17.3333C11 8.51545 18.1447 1.5 27 1.5C35.8554 1.5 43 8.51545 43 17.3333C43 19.6679 42.0454 22.3596 40.4586 25.1782C38.8848 27.9734 36.7662 30.7592 34.6151 33.2484C32.4685 35.7323 30.3174 37.8889 28.7008 39.426Z" fill="white" stroke="#0F1C5F" stroke-width="3"/>
<path d="M33.5 18C33.5 21.5899 30.5899 24.5 27 24.5C23.4101 24.5 20.5 21.5899 20.5 18C20.5 14.4101 23.4101 11.5 27 11.5C30.5899 11.5 33.5 14.4101 33.5 18Z" fill="#D9D9D9" stroke="#0F1C5F" stroke-width="3"/>
<path d="M29 18C29 19.1046 28.1046 20 27 20C25.8954 20 25 19.1046 25 18C25 16.8954 25.8954 16 27 16C28.1046 16 29 16.8954 29 18Z" fill="#0F1C5F"/>
</svg>
