<svg width="57" height="51" viewBox="0 0 57 51" fill="none" xmlns="http://www.w3.org/2000/svg">
<path d="M54.7473 11.8022C54.7473 9.04082 52.5085 6.80225 49.747 6.80225C47.4827 6.80225 45.3695 6.80225 42.5 6.80225H40.75H39H18H16H14.5H7C4.23858 6.80225 2 9.04082 2 11.8022V18.5H54.7473V11.8022Z" fill="#D9D9D9"/>
<path d="M2 44C2 46.7615 4.23857 49 6.99999 49H49.7473C52.5087 49 54.7473 46.7615 54.7473 44V18.5H2V44Z" fill="white"/>
<path d="M2 18.5V44C2 46.7615 4.23857 49 6.99999 49H49.7473C52.5087 49 54.7473 46.7615 54.7473 44.0001V18.5M2 18.5V11.8022C2 9.04082 4.23858 6.80225 7 6.80225H14.5M2 18.5H54.7473M54.7473 18.5V11.8022C54.7473 9.04082 52.5085 6.80225 49.747 6.80225C47.4827 6.80225 45.3695 6.80225 42.5 6.80225M14.5 6.80225H16H18M14.5 6.80225V3.75C14.5 2.7835 15.2835 2 16.25 2V2C17.2165 2 18 2.7835 18 3.75V6.80225M18 6.80225H39M39 6.80225H40.75H42.5M39 6.80225V3.75C39 2.7835 39.7835 2 40.75 2V2C41.7165 2 42.5 2.7835 42.5 3.75V6.80225" stroke="#0F1C5F" stroke-width="3" stroke-linecap="round"/>
<line x1="34.5" y1="28.5" x2="42.5" y2="28.5" stroke="#0F1C5F" stroke-width="3" stroke-linecap="round"/>
<line x1="14.5" y1="28.5" x2="22.5" y2="28.5" stroke="#0F1C5F" stroke-width="3" stroke-linecap="round"/>
<line x1="34.5" y1="38.1702" x2="42.5" y2="38.1702" stroke="#0F1C5F" stroke-width="3" stroke-linecap="round"/>
<line x1="14.5" y1="38.1702" x2="22.5" y2="38.1702" stroke="#0F1C5F" stroke-width="3" stroke-linecap="round"/>
</svg>
