<svg width="60" height="49" viewBox="0 0 60 49" fill="none" xmlns="http://www.w3.org/2000/svg">
<path d="M3.10329 15.1269C2.40163 15.6956 2 16.5464 2 17.4496V44.022C2 45.6789 3.34315 47.022 5 47.022H19.8407V2.02206C19.5442 2.10381 19.0915 2.3322 18.8496 2.52205C13.2948 6.88099 5.87298 12.882 3.10329 15.1269Z" fill="#D9D9D9"/>
<path d="M19.8407 2.02206V47.022H32.7257H45.6106H55C56.6569 47.022 58 45.6789 58 44.022V31.522V18.0978C58 16.8489 57.2262 15.7306 56.0575 15.2903L21.3433 2.21468C21.0051 2.08731 20.6468 2.01612 20.2857 2.00368C20.0994 1.99726 19.9318 1.99696 19.8407 2.02206Z" fill="white"/>
<path d="M19.8407 2.02206C19.8407 19.5956 19.8407 47.022 19.8407 47.022M19.8407 2.02206C19.5442 2.10381 19.0915 2.3322 18.8496 2.52205C13.2948 6.88099 5.87298 12.882 3.10329 15.1269C2.40163 15.6956 2 16.5464 2 17.4496V44.022C2 45.6789 3.34315 47.022 5 47.022H19.8407M19.8407 2.02206C19.9318 1.99696 20.0994 1.99726 20.2857 2.00368C20.6468 2.01612 21.0051 2.08731 21.3433 2.21468L56.0575 15.2903C57.2262 15.7306 58 16.8489 58 18.0978V31.522V44.022C58 45.6789 56.6569 47.022 55 47.022H45.6106H32.7257H19.8407M19.8407 2.02206V47.022" stroke="#0F1C5F" stroke-width="3" stroke-linejoin="round"/>
<path d="M32.5 27.3308V47.0221H45.5V30.4462C45.5 29.5938 44.9597 28.8351 44.1542 28.5562L35.1542 25.4409C33.8551 24.9912 32.5 25.956 32.5 27.3308Z" stroke="#0F1C5F" stroke-width="3" stroke-linejoin="round"/>
</svg>
