<svg width="29" height="23" viewBox="0 0 29 23" fill="none" xmlns="http://www.w3.org/2000/svg">
<path d="M15.1135 22.5H9.72277V0.567486C9.8065 0.582396 9.88902 0.604778 9.96931 0.634517L26.8987 6.90467C27.4872 7.12261 27.8778 7.6838 27.8778 8.31129V21C27.8778 21.8284 27.2062 22.5 26.3778 22.5H22.4804L22.2908 14.9146C22.2647 13.8723 21.5946 12.9557 20.6093 12.6146L18.427 11.8592C16.8025 11.2969 15.1083 12.5039 15.1092 14.2229L15.1135 22.5ZM8.66644 0.883592C8.68498 0.869329 8.70376 0.855411 8.72277 0.841841V22.5H2C1.17157 22.5 0.5 21.8284 0.5 21V7.90407C0.5 7.43837 0.716306 6.99908 1.08543 6.71514L8.66644 0.883592ZM21.2911 14.9396L21.4801 22.5H16.1135L16.1092 14.2224C16.1087 13.191 17.1252 12.4668 18.0999 12.8042L20.2822 13.5596C20.8734 13.7642 21.2755 14.3142 21.2911 14.9396Z" stroke="white"/>
</svg>
