<svg width="29" height="26" viewBox="0 0 29 26" fill="none" xmlns="http://www.w3.org/2000/svg">
<path d="M2 18V18C1.44772 18 1 18.4477 1 19V20C1 20.5523 1.44772 21 2 21H10.5M2 18H27M2 18V14.5M27 18V18C27.5523 18 28 18.4477 28 19V20C28 20.5523 27.5523 21 27 21H10.5M27 18V16.5M10.5 21L9 25M18.5 21L20 25M2 14.5V3C2 1.89543 2.89543 1 4 1H25C26.1046 1 27 1.89543 27 3V16.5M2 14.5L6.96453 7.24414C7.72625 6.13087 9.34906 6.07548 10.1849 7.13422L16 14.5M18.5 18L16 14.5M16 14.5L18.5327 10.3844C19.2518 9.21575 20.9075 9.10194 21.7798 10.1612L27 16.5" stroke="white" stroke-linecap="round"/>
</svg>
