<svg width="23" height="23" viewBox="0 0 23 23" fill="none" xmlns="http://www.w3.org/2000/svg">
<path d="M22.3119 10.5028L20.7181 8.9466L11.9994 0.284098C11.9152 0.194415 11.8135 0.122935 11.7007 0.0740726C11.5878 0.0252096 11.4661 0 11.3431 0C11.2201 0 11.0984 0.0252096 10.9856 0.0740726C10.8727 0.122935 10.771 0.194415 10.6869 0.284098L1.96812 8.85285L0.411875 10.3903C0.313189 10.4737 0.232796 10.5766 0.17574 10.6925C0.118685 10.8084 0.0861979 10.9348 0.0803175 11.0639C0.0744372 11.1929 0.0952905 11.3218 0.141569 11.4424C0.187848 11.563 0.258553 11.6727 0.349249 11.7647C0.439944 11.8567 0.548672 11.929 0.668612 11.977C0.788552 12.0249 0.917114 12.0476 1.04623 12.0436C1.17535 12.0395 1.30224 12.0088 1.41894 11.9534C1.53563 11.898 1.63962 11.8191 1.72437 11.7216V21.4716C1.72437 21.7202 1.82315 21.9587 1.99896 22.1345C2.17478 22.3103 2.41323 22.4091 2.66187 22.4091H20.0806C20.3293 22.4091 20.5677 22.3103 20.7435 22.1345C20.9194 21.9587 21.0181 21.7202 21.0181 21.4716V11.8153C21.1963 11.9818 21.4305 12.0755 21.6744 12.0778C21.9278 12.0772 22.1705 11.9761 22.3494 11.7966C22.5151 11.6196 22.6041 11.3843 22.5971 11.142C22.5901 10.8997 22.4876 10.6699 22.3119 10.5028ZM8.30563 20.6278V12.9778H13.9306V20.6278H8.30563ZM19.1056 20.6278H15.8431V12.0403C15.8383 11.7932 15.738 11.5575 15.5632 11.3827C15.3884 11.208 15.1528 11.1076 14.9056 11.1028H7.40563C7.15849 11.1076 6.92281 11.208 6.74802 11.3827C6.57324 11.5575 6.47293 11.7932 6.46813 12.0403V20.6278H3.56187V9.9591L11.3431 2.25285L19.1056 9.9591V20.6278Z" fill="#151515"/>
</svg>
