<svg width="23" height="23" viewBox="0 0 23 23" fill="none" xmlns="http://www.w3.org/2000/svg">
<path d="M22.2325 10.5028L20.6388 8.9466L11.92 0.284098C11.8359 0.194415 11.7342 0.122935 11.6213 0.0740726C11.5085 0.0252096 11.3868 0 11.2638 0C11.1408 0 11.0191 0.0252096 10.9062 0.0740726C10.7934 0.122935 10.6917 0.194415 10.6075 0.284098L1.88878 8.85285L0.332529 10.3903C0.233843 10.4737 0.15345 10.5766 0.0963948 10.6925C0.0393392 10.8084 0.0068522 10.9348 0.000971836 11.0639C-0.00490853 11.1929 0.0159448 11.3218 0.0622234 11.4424C0.108502 11.563 0.179207 11.6727 0.269903 11.7647C0.360598 11.8567 0.469327 11.929 0.589266 11.977C0.709206 12.0249 0.837769 12.0476 0.966887 12.0436C1.09601 12.0395 1.22289 12.0088 1.33959 11.9534C1.45629 11.898 1.56028 11.8191 1.64503 11.7216V21.4716C1.64503 21.7202 1.7438 21.9587 1.91962 22.1345C2.09543 22.3103 2.33389 22.4091 2.58253 22.4091H20.0013C20.2499 22.4091 20.4884 22.3103 20.6642 22.1345C20.84 21.9587 20.9388 21.7202 20.9388 21.4716V11.8153C21.117 11.9818 21.3511 12.0755 21.595 12.0778C21.8484 12.0772 22.0912 11.9761 22.27 11.7966C22.4357 11.6196 22.5248 11.3843 22.5178 11.142C22.5107 10.8997 22.4082 10.6699 22.2325 10.5028ZM8.22628 20.6278V12.9778H13.8513V20.6278H8.22628ZM19.0263 20.6278H15.7638V12.0403C15.759 11.7932 15.6587 11.5575 15.4839 11.3827C15.3091 11.208 15.0734 11.1076 14.8263 11.1028H7.32628C7.07914 11.1076 6.84346 11.208 6.66868 11.3827C6.49389 11.5575 6.39358 11.7932 6.38878 12.0403V20.6278H3.48253V9.9591L11.2638 2.25285L19.0263 9.9591V20.6278Z" fill="white"/>
</svg>
